<?xml version="1.0" encoding="UTF-8" standalone="no"?>
<!DOCTYPE svg PUBLIC "-//W3C//DTD SVG 1.1//EN"
 "http://www.w3.org/Graphics/SVG/1.1/DTD/svg11.dtd">
<!-- Generated by graphviz version 2.40.1 (20161225.0304)
 -->
<!-- Title: G Pages: 1 -->
<svg width="1568pt" height="328pt"
 viewBox="0.00 0.00 1568.00 328.00" xmlns="http://www.w3.org/2000/svg" xmlns:xlink="http://www.w3.org/1999/xlink">
<g id="graph0" class="graph" transform="scale(1 1) rotate(0) translate(4 324)">
<title>G</title>
<!-- marschner03 -->
<g id="node1" class="node">
<title>marschner03</title>
<polygon fill="none" stroke="#ffffff" points="947,-320 491,-320 491,-267 947,-267 947,-320"/>
<text text-anchor="middle" x="719" y="-304.8" font-family="Times,serif" font-size="14.00" fill="#ffffff">Marschner, S. R.; Jensen, H. W.; Cammarano, M.; Worley, S. &amp; Hanrahan, P. </text>
<text text-anchor="middle" x="719" y="-289.8" font-family="Times,serif" font-size="14.00" fill="#ffffff">Light scattering from human hair fibers </text>
<text text-anchor="middle" x="719" y="-274.8" font-family="Times,serif" font-size="14.00" fill="#ffffff">ACM Trans. Graph., 2003, 22, 780&#45;791</text>
</g>
<!-- dEon2011 -->
<g id="node2" class="node">
<title>dEon2011</title>
<polygon fill="none" stroke="#ffffff" points="686.5,-231 337.5,-231 337.5,-178 686.5,-178 686.5,-231"/>
<text text-anchor="middle" x="512" y="-215.8" font-family="Times,serif" font-size="14.00" fill="#ffffff">d&#39;Eon, E.; Francois, G.; Hill, M.; Letteri, J. &amp; Aubry, J.&#45;M. </text>
<text text-anchor="middle" x="512" y="-200.8" font-family="Times,serif" font-size="14.00" fill="#ffffff">An Energy&#45;Conserving Hair Reflectance Model </text>
<text text-anchor="middle" x="512" y="-185.8" font-family="Times,serif" font-size="14.00" fill="#ffffff">Computer Graphics Forum, 2011, 30, 1181&#45;1187</text>
</g>
<!-- marschner03&#45;&gt;dEon2011 -->
<g id="edge1" class="edge">
<title>marschner03&#45;&gt;dEon2011</title>
<path fill="none" stroke="#000000" d="M657.1736,-266.9176C633.9306,-256.9243 607.3215,-245.4837 583.2867,-235.1498"/>
<polygon fill="#000000" stroke="#000000" points="584.4346,-231.8337 573.8653,-231.0991 581.6697,-238.2645 584.4346,-231.8337"/>
</g>
<!-- yan2015 -->
<g id="node5" class="node">
<title>yan2015</title>
<polygon fill="none" stroke="#ffffff" points="1147.5,-231 704.5,-231 704.5,-178 1147.5,-178 1147.5,-231"/>
<text text-anchor="middle" x="926" y="-215.8" font-family="Times,serif" font-size="14.00" fill="#ffffff">Yan, L.&#45;Q.; Tseng, C.&#45;W.; Jensen, H. W. &amp; Ramamoorthi, R. </text>
<text text-anchor="middle" x="926" y="-200.8" font-family="Times,serif" font-size="14.00" fill="#ffffff">Physically&#45;accurate Fur Reflectance: Modeling, Measurement and Rendering </text>
<text text-anchor="middle" x="926" y="-185.8" font-family="Times,serif" font-size="14.00" fill="#ffffff">ACM Trans. Graph., ACM, 2015, 34, 185:1&#45;185:13</text>
</g>
<!-- marschner03&#45;&gt;yan2015 -->
<g id="edge4" class="edge">
<title>marschner03&#45;&gt;yan2015</title>
<path fill="none" stroke="#000000" d="M780.8264,-266.9176C804.0694,-256.9243 830.6785,-245.4837 854.7133,-235.1498"/>
<polygon fill="#000000" stroke="#000000" points="856.3303,-238.2645 864.1347,-231.0991 853.5654,-231.8337 856.3303,-238.2645"/>
</g>
<!-- dEon2013 -->
<g id="node3" class="node">
<title>dEon2013</title>
<polygon fill="none" stroke="#ffffff" points="348,-142 0,-142 0,-89 348,-89 348,-142"/>
<text text-anchor="middle" x="174" y="-126.8" font-family="Times,serif" font-size="14.00" fill="#ffffff">d’Eon , E.; Marschner, S. &amp; Hanika, J. </text>
<text text-anchor="middle" x="174" y="-111.8" font-family="Times,serif" font-size="14.00" fill="#ffffff">Importance sampling for physically&#45;based hair fiber models </text>
<text text-anchor="middle" x="174" y="-96.8" font-family="Times,serif" font-size="14.00" fill="#ffffff">SIGGRAPH Asia 2013 Technical Briefs, 2013</text>
</g>
<!-- dEon2011&#45;&gt;dEon2013 -->
<g id="edge2" class="edge">
<title>dEon2011&#45;&gt;dEon2013</title>
<path fill="none" stroke="#000000" d="M411.0467,-177.9176C371.1571,-167.4142 325.1958,-155.3119 284.4248,-144.5764"/>
<polygon fill="#000000" stroke="#000000" points="285.2867,-141.1841 274.725,-142.0223 283.5042,-147.9533 285.2867,-141.1841"/>
</g>
<!-- dEon2014 -->
<g id="node4" class="node">
<title>dEon2014</title>
<polygon fill="none" stroke="#ffffff" points="670,-142 366,-142 366,-89 670,-89 670,-142"/>
<text text-anchor="middle" x="518" y="-126.8" font-family="Times,serif" font-size="14.00" fill="#ffffff">d&#39;Eon , E.; Marschner, S. &amp; Hanika, J.</text>
<text text-anchor="middle" x="518" y="-111.8" font-family="Times,serif" font-size="14.00" fill="#ffffff">A Fiber Scattering Model with Non&#45;separable Lobes</text>
<text text-anchor="middle" x="518" y="-96.8" font-family="Times,serif" font-size="14.00" fill="#ffffff">ACM SIGGRAPH 2014 Talks, 2014, 46:1&#45;46:1</text>
</g>
<!-- dEon2011&#45;&gt;dEon2014 -->
<g id="edge3" class="edge">
<title>dEon2011&#45;&gt;dEon2014</title>
<path fill="none" stroke="#000000" d="M513.8002,-177.7971C514.3401,-169.7887 514.942,-160.8597 515.5178,-152.3198"/>
<polygon fill="#000000" stroke="#000000" points="519.0204,-152.3969 516.2011,-142.1841 512.0363,-151.926 519.0204,-152.3969"/>
</g>
<!-- chiang2016 -->
<g id="node6" class="node">
<title>chiang2016</title>
<polygon fill="none" stroke="#ffffff" points="1143.5,-142 698.5,-142 698.5,-89 1143.5,-89 1143.5,-142"/>
<text text-anchor="middle" x="921" y="-126.8" font-family="Times,serif" font-size="14.00" fill="#ffffff">Chiang, M. J.&#45;Y.; Bitterli, B.; Tappan, C. &amp; Burley, B. </text>
<text text-anchor="middle" x="921" y="-111.8" font-family="Times,serif" font-size="14.00" fill="#ffffff">A Practical and Controllable Hair and Fur Model for Production Path Tracing </text>
<text text-anchor="middle" x="921" y="-96.8" font-family="Times,serif" font-size="14.00" fill="#ffffff">Comput. Graph. Forum, 2016, 35, 275&#45;283</text>
</g>
<!-- yan2015&#45;&gt;chiang2016 -->
<g id="edge5" class="edge">
<title>yan2015&#45;&gt;chiang2016</title>
<path fill="none" stroke="#000000" d="M924.4998,-177.7971C924.0499,-169.7887 923.5483,-160.8597 923.0685,-152.3198"/>
<polygon fill="#000000" stroke="#000000" points="926.5546,-151.972 922.4991,-142.1841 919.5656,-152.3647 926.5546,-151.972"/>
</g>
<!-- yan2017 -->
<g id="node7" class="node">
<title>yan2017</title>
<polygon fill="none" stroke="#ffffff" points="1560,-142 1162,-142 1162,-89 1560,-89 1560,-142"/>
<text text-anchor="middle" x="1361" y="-126.8" font-family="Times,serif" font-size="14.00" fill="#ffffff">Yan, L.&#45;Q.; Jensen, H. W. &amp; Ramamoorthi, R. </text>
<text text-anchor="middle" x="1361" y="-111.8" font-family="Times,serif" font-size="14.00" fill="#ffffff">An Efficient and Practical Near and Far Field Fur Reflectance Model </text>
<text text-anchor="middle" x="1361" y="-96.8" font-family="Times,serif" font-size="14.00" fill="#ffffff">ACM Trans. Graphics, 2017, 36</text>
</g>
<!-- yan2015&#45;&gt;yan2017 -->
<g id="edge7" class="edge">
<title>yan2015&#45;&gt;yan2017</title>
<path fill="none" stroke="#000000" d="M1055.6308,-177.9778C1107.8439,-167.2952 1168.1784,-154.9509 1221.3586,-144.0703"/>
<polygon fill="#000000" stroke="#000000" points="1222.1062,-147.4899 1231.2017,-142.0564 1220.703,-140.632 1222.1062,-147.4899"/>
</g>
<!-- yan2017bis -->
<g id="node8" class="node">
<title>yan2017bis</title>
<polygon fill="none" stroke="#ffffff" points="1136.5,-53 705.5,-53 705.5,0 1136.5,0 1136.5,-53"/>
<text text-anchor="middle" x="921" y="-37.8" font-family="Times,serif" font-size="14.00" fill="#ffffff">Yan, L.&#45;Q.; Sun, W.; Jensen, H. W. &amp; Ramamoorthi, R. </text>
<text text-anchor="middle" x="921" y="-22.8" font-family="Times,serif" font-size="14.00" fill="#ffffff">A BSSRDF Model for Efficient Rendering of Fur with Global Illumination </text>
<text text-anchor="middle" x="921" y="-7.8" font-family="Times,serif" font-size="14.00" fill="#ffffff">ACM Trans. Graph., ACM, 2017, 36, 208:1&#45;208:13</text>
</g>
<!-- chiang2016&#45;&gt;yan2017bis -->
<g id="edge6" class="edge">
<title>chiang2016&#45;&gt;yan2017bis</title>
<path fill="none" stroke="#000000" d="M921,-88.7971C921,-80.7887 921,-71.8597 921,-63.3198"/>
<polygon fill="#000000" stroke="#000000" points="924.5001,-63.1841 921,-53.1841 917.5001,-63.1841 924.5001,-63.1841"/>
</g>
</g>
</svg>
